<svg id="visual" viewBox="0 0 960 540" width="960" height="540" xmlns="http://www.w3.org/2000/svg" xmlns:xlink="http://www.w3.org/1999/xlink" version="1.1"><rect x="0" y="0" width="960" height="540" fill="#08010c"></rect><path d="M0 270L64 270L64 245L128 245L128 265L192 265L192 249L256 249L256 274L320 274L320 251L384 251L384 249L448 249L448 275L512 275L512 264L576 264L576 236L640 236L640 246L704 246L704 267L768 267L768 245L832 245L832 233L896 233L896 275L960 275L960 283L960 0L960 0L896 0L896 0L832 0L832 0L768 0L768 0L704 0L704 0L640 0L640 0L576 0L576 0L512 0L512 0L448 0L448 0L384 0L384 0L320 0L320 0L256 0L256 0L192 0L192 0L128 0L128 0L64 0L64 0L0 0Z" fill="#3e0466"></path><path d="M0 228L64 228L64 195L128 195L128 228L192 228L192 212L256 212L256 198L320 198L320 218L384 218L384 208L448 208L448 187L512 187L512 222L576 222L576 192L640 192L640 218L704 218L704 219L768 219L768 215L832 215L832 222L896 222L896 223L960 223L960 205L960 0L960 0L896 0L896 0L832 0L832 0L768 0L768 0L704 0L704 0L640 0L640 0L576 0L576 0L512 0L512 0L448 0L448 0L384 0L384 0L320 0L320 0L256 0L256 0L192 0L192 0L128 0L128 0L64 0L64 0L0 0Z" fill="#500880"></path><path d="M0 138L64 138L64 140L128 140L128 151L192 151L192 159L256 159L256 159L320 159L320 151L384 151L384 148L448 148L448 170L512 170L512 176L576 176L576 164L640 164L640 172L704 172L704 159L768 159L768 163L832 163L832 162L896 162L896 136L960 136L960 144L960 0L960 0L896 0L896 0L832 0L832 0L768 0L768 0L704 0L704 0L640 0L640 0L576 0L576 0L512 0L512 0L448 0L448 0L384 0L384 0L320 0L320 0L256 0L256 0L192 0L192 0L128 0L128 0L64 0L64 0L0 0Z" fill="#620e9b"></path><path d="M0 102L64 102L64 126L128 126L128 119L192 119L192 103L256 103L256 126L320 126L320 113L384 113L384 106L448 106L448 112L512 112L512 120L576 120L576 113L640 113L640 112L704 112L704 99L768 99L768 114L832 114L832 121L896 121L896 108L960 108L960 125L960 0L960 0L896 0L896 0L832 0L832 0L768 0L768 0L704 0L704 0L640 0L640 0L576 0L576 0L512 0L512 0L448 0L448 0L384 0L384 0L320 0L320 0L256 0L256 0L192 0L192 0L128 0L128 0L64 0L64 0L0 0Z" fill="#7514b7"></path><path d="M0 66L64 66L64 43L128 43L128 59L192 59L192 39L256 39L256 60L320 60L320 50L384 50L384 40L448 40L448 72L512 72L512 65L576 65L576 53L640 53L640 49L704 49L704 58L768 58L768 53L832 53L832 73L896 73L896 56L960 56L960 33L960 0L960 0L896 0L896 0L832 0L832 0L768 0L768 0L704 0L704 0L640 0L640 0L576 0L576 0L512 0L512 0L448 0L448 0L384 0L384 0L320 0L320 0L256 0L256 0L192 0L192 0L128 0L128 0L64 0L64 0L0 0Z" fill="#891ad3"></path></svg>